<svg xmlns="http://www.w3.org/2000/svg" version="1.0" width="893.000000pt" height="135.000000pt" viewBox="0 0 893.000000 135.000000" preserveAspectRatio="xMidYMid meet">
<metadata fill="#10578b">
Created by potrace 1.16, written by Peter Selinger 2001-2019
</metadata>
<g transform="translate(0.000000,135.000000) scale(0.100000,-0.100000)" fill="#10578b" stroke="none">
<path d="M242 788 c3 -377 3 -384 26 -426 56 -105 146 -163 265 -170 90 -5 142 10 212 63 l43 33 21 -22 c12 -12 43 -33 69 -47 40 -20 61 -24 142 -24 85 0 100 3 141 27 60 35 114 92 142 148 21 44 22 56 25 423 l3 378 -83 -3 -83 -3 -5 -360 c-5 -385 -6 -386 -58 -423 -68 -49 -167 -29 -210 40 -21 35 -22 44 -22 392 l0 356 -85 0 -85 0 0 -354 c0 -350 0 -353 -22 -386 -37 -54 -72 -74 -128 -74 -54 0 -87 18 -124 68 -20 26 -21 42 -24 387 l-3 359 -80 0 -80 0 3 -382z" fill="#10578b"/>
<path d="M6200 680 l0 -490 325 0 325 0 0 80 0 80 -245 0 -245 0 0 410 0 410 -80 0 -80 0 0 -490z" fill="#10578b"/>
<path d="M3240 675 l0 -485 80 0 80 0 0 485 0 485 -80 0 -80 0 0 -485z" fill="#10578b"/>
<path d="M8070 675 l0 -485 80 0 80 0 0 161 0 161 143 -4 c123 -3 148 -6 184 -25 82 -44 133 -138 133 -245 l0 -48 85 0 85 0 0 28 c-1 124 -47 253 -118 330 l-38 41 38 38 c71 69 118 196 118 321 l0 42 -84 0 -83 0 -5 -77 c-5 -84 -20 -122 -64 -167 -58 -57 -96 -69 -251 -74 l-143 -5 0 209 0 210 -75 37 c-42 20 -78 37 -80 37 -3 0 -5 -218 -5 -485z" fill="#10578b"/>
<path d="M1513 1052 l-73 -36 0 -43 0 -43 80 0 80 0 0 80 c0 44 -3 80 -7 79 -5 0 -41 -17 -80 -37z" fill="#10578b"/>
<path d="M7043 1052 l-73 -36 0 -43 0 -43 80 0 80 0 0 80 c0 44 -3 80 -7 79 -5 0 -41 -17 -80 -37z" fill="#10578b"/>
<path d="M2661 969 c-116 -20 -236 -113 -289 -227 -24 -50 -27 -69 -27 -162 0 -93 3 -112 27 -162 14 -31 45 -76 67 -101 22 -24 37 -47 33 -51 -4 -4 -2 -6 3 -5 6 2 41 -12 80 -31 l69 -35 178 -3 178 -4 0 81 0 81 -133 0 c-173 0 -218 13 -281 80 -25 27 -46 54 -46 60 0 7 100 10 305 10 l305 0 0 38 c0 20 -5 66 -11 102 -35 219 -239 365 -458 329z m184 -194 c39 -23 95 -86 95 -107 0 -5 -94 -8 -210 -8 -115 0 -210 3 -210 6 0 4 9 22 21 40 60 98 200 130 304 69z" fill="#10578b"/>
<path d="M3830 966 c-118 -25 -218 -104 -273 -215 -30 -61 -32 -73 -32 -171 0 -93 3 -112 27 -162 37 -80 107 -152 187 -191 65 -32 66 -32 243 -35 l178 -4 0 81 0 81 -133 0 c-173 0 -218 13 -281 80 -25 27 -46 54 -46 60 0 7 100 10 305 10 l305 0 0 38 c0 70 -21 167 -46 218 -33 65 -114 145 -179 178 -28 14 -80 30 -115 35 -76 13 -69 13 -140 -3z m195 -191 c39 -23 95 -86 95 -107 0 -5 -94 -8 -210 -8 -115 0 -210 3 -210 6 0 4 9 22 21 40 60 98 200 130 304 69z" fill="#10578b"/>
<path d="M4610 971 c-52 -11 -92 -35 -132 -79 -46 -51 -61 -99 -56 -178 5 -75 37 -130 107 -179 l43 -30 179 -3 c105 -2 177 -7 173 -13 -3 -5 5 -9 18 -9 18 0 20 2 8 10 -12 8 -11 10 7 10 12 0 35 -12 50 -26 17 -16 21 -24 11 -20 -10 3 -20 0 -24 -6 -4 -7 -3 -8 4 -4 7 4 12 2 12 -4 0 -6 4 -9 9 -5 20 12 3 -49 -19 -67 -24 -19 -100 -25 -100 -8 0 7 -7 7 -20 0 -13 -7 -71 -10 -148 -9 -102 2 -129 5 -140 18 -10 13 -12 14 -10 1 2 -12 -11 -16 -64 -18 l-68 -3 0 -79 0 -80 287 0 c270 0 289 1 330 21 52 25 97 77 120 139 9 25 22 48 27 52 7 5 7 8 1 8 -6 0 -11 14 -11 31 -3 54 -60 151 -107 181 -60 38 -75 40 -283 42 l-186 1 -25 29 c-28 33 -25 70 9 99 18 15 48 17 290 17 l269 0 -3 83 -3 82 -260 1 c-143 1 -276 -1 -295 -5z" fill="#10578b"/>
<path d="M5505 971 c-77 -14 -149 -71 -179 -143 -20 -47 -20 -138 -1 -184 8 -20 38 -60 67 -88 l53 -53 210 -2 c239 -2 257 -7 263 -73 2 -29 -2 -40 -24 -57 -26 -21 -37 -22 -251 -20 -166 0 -221 4 -217 12 5 8 2 7 -7 0 -7 -7 -28 -13 -46 -13 l-33 0 0 -80 0 -81 299 3 299 3 43 30 c159 112 136 347 -40 423 -27 11 -83 16 -231 18 l-195 3 -23 27 c-27 31 -24 69 10 97 18 15 48 17 290 17 l269 0 -3 83 -3 82 -255 1 c-140 1 -273 -1 -295 -5z" fill="#10578b"/>
<path d="M1969 947 c-102 -43 -173 -110 -218 -206 -26 -55 -26 -60 -29 -303 l-3 -248 80 0 81 0 0 203 c0 241 9 283 71 346 45 45 123 75 181 69 31 -3 32 -1 60 71 16 41 26 77 22 80 -3 3 -47 7 -97 9 -78 2 -101 -1 -148 -21z" fill="#10578b"/>
<path d="M7500 961 c-93 -30 -172 -97 -217 -183 l-28 -53 -3 -267 -3 -268 80 0 81 0 0 223 c0 131 5 238 11 262 6 22 28 56 48 76 66 66 163 74 239 19 68 -49 72 -67 72 -339 l0 -241 86 0 85 0 -3 262 -3 263 -28 56 c-31 64 -103 136 -168 170 -34 18 -64 23 -134 26 -49 1 -101 -1 -115 -6z" fill="#10578b"/>
<path d="M1440 485 l0 -295 80 0 80 0 0 295 0 295 -80 0 -80 0 0 -295z" fill="#10578b"/>
<path d="M6970 485 l0 -295 80 0 80 0 0 295 0 295 -80 0 -80 0 0 -295z" fill="#10578b"/>
</g>
</svg>